<svg id="ect2RQmJZpl1" xmlns="http://www.w3.org/2000/svg" xmlns:xlink="http://www.w3.org/1999/xlink" viewBox="0 0 300 350" shape-rendering="geometricPrecision" text-rendering="geometricPrecision"><rect width="290" height="290" rx="0" ry="0" transform="translate(5 54.20004)" fill="none" stroke="#4d4d4d" stroke-width="2"/><rect width="31" height="31" rx="0" ry="0" transform="translate(10.432358 59.643539)" fill="#c1c1c1" stroke-width="0"/><rect width="31" height="31" rx="0" ry="0" transform="translate(45.878313 59.643539)" fill="#c1c1c1" stroke-width="0"/><rect width="31" height="31" rx="0" ry="0" transform="translate(81.324268 59.643539)" fill="#c1c1c1" stroke-width="0"/><rect width="31" height="31" rx="0" ry="0" transform="translate(116.770223 59.643539)" fill="#c1c1c1" stroke-width="0"/><rect width="31" height="31" rx="0" ry="0" transform="translate(152.216178 59.643539)" fill="#c1c1c1" stroke-width="0"/><rect width="31" height="31" rx="0" ry="0" transform="translate(187.662133 59.643539)" fill="#c1c1c1" stroke-width="0"/><rect width="31" height="31" rx="0" ry="0" transform="translate(223.108088 59.643539)" fill="#c1c1c1" stroke-width="0"/><rect width="31" height="31" rx="0" ry="0" transform="translate(258.554043 59.643539)" fill="#c1c1c1" stroke-width="0"/><rect width="31" height="31" rx="0" ry="0" transform="translate(258.554043 95.087038)" fill="#c1c1c1" stroke-width="0"/><rect width="31" height="31" rx="0" ry="0" transform="translate(258.554043 130.530537)" fill="#c1c1c1" stroke-width="0"/><rect width="31" height="31" rx="0" ry="0" transform="translate(223.108088 130.530537)" fill="#c1c1c1" stroke-width="0"/><rect width="31" height="31" rx="0" ry="0" transform="translate(187.662133 130.530537)" fill="#c1c1c1" stroke-width="0"/><rect width="31" height="31" rx="0" ry="0" transform="translate(152.216178 130.530537)" fill="#c1c1c1" stroke-width="0"/><rect width="31" height="31" rx="0" ry="0" transform="translate(116.770223 130.530537)" fill="#c1c1c1" stroke-width="0"/><rect width="31" height="31" rx="0" ry="0" transform="translate(81.324268 130.530537)" fill="#c1c1c1" stroke-width="0"/><rect width="31" height="31" rx="0" ry="0" transform="translate(45.878313 130.530537)" fill="#c1c1c1" stroke-width="0"/><rect width="31" height="31" rx="0" ry="0" transform="translate(223.108088 95.087038)" fill="#c1c1c1" stroke-width="0"/><rect width="31" height="31" rx="0" ry="0" transform="translate(187.662133 95.087038)" fill="#c1c1c1" stroke-width="0"/><rect width="31" height="31" rx="0" ry="0" transform="translate(152.216178 95.087038)" fill="#c1c1c1" stroke-width="0"/><rect width="31" height="31" rx="0" ry="0" transform="translate(116.770223 95.087038)" fill="#c1c1c1" stroke-width="0"/><rect width="31" height="31" rx="0" ry="0" transform="translate(116.770223 165.974036)" fill="#c1c1c1" stroke-width="0"/><rect width="31" height="31" rx="0" ry="0" transform="translate(116.770223 201.417535)" fill="#c1c1c1" stroke-width="0"/><rect width="31" height="31" rx="0" ry="0" transform="translate(258.554043 201.417535)" fill="#c1c1c1" stroke-width="0"/><rect width="31" height="31" rx="0" ry="0" transform="translate(223.108088 201.417535)" fill="#c1c1c1" stroke-width="0"/><rect width="31" height="31" rx="0" ry="0" transform="translate(187.662133 201.417535)" fill="#c1c1c1" stroke-width="0"/><rect width="31" height="31" rx="0" ry="0" transform="translate(152.216178 201.417535)" fill="#c1c1c1" stroke-width="0"/><rect width="31" height="31" rx="0" ry="0" transform="translate(116.770223 201.417535)" fill="#c1c1c1" stroke-width="0"/><rect width="31" height="31" rx="0" ry="0" transform="translate(81.324268 201.417535)" fill="#c1c1c1" stroke-width="0"/><rect width="31" height="31" rx="0" ry="0" transform="translate(45.878313 201.417535)" fill="#c1c1c1" stroke-width="0"/><rect width="31" height="31" rx="0" ry="0" transform="translate(258.554043 165.974036)" fill="#c1c1c1" stroke-width="0"/><rect width="31" height="31" rx="0" ry="0" transform="translate(223.108088 165.974036)" fill="#c1c1c1" stroke-width="0"/><rect width="31" height="31" rx="0" ry="0" transform="translate(187.662133 165.974036)" fill="#c1c1c1" stroke-width="0"/><rect width="31" height="31" rx="0" ry="0" transform="translate(152.216178 165.974036)" fill="#c1c1c1" stroke-width="0"/><rect width="31" height="31" rx="0" ry="0" transform="translate(116.770223 201.417535)" fill="#c1c1c1" stroke-width="0"/><rect width="31" height="31" rx="0" ry="0" transform="translate(116.770223 236.861034)" fill="#c1c1c1" stroke-width="0"/><rect width="31" height="31" rx="0" ry="0" transform="translate(116.770223 272.304533)" fill="#c1c1c1" stroke-width="0"/><rect width="31" height="31" rx="0" ry="0" transform="translate(116.770223 272.304533)" fill="#c1c1c1" stroke-width="0"/><rect width="31" height="31" rx="0" ry="0" transform="translate(258.554043 272.304533)" fill="#c1c1c1" stroke-width="0"/><rect width="31" height="31" rx="0" ry="0" transform="translate(223.108088 272.304533)" fill="#c1c1c1" stroke-width="0"/><rect width="31" height="31" rx="0" ry="0" transform="translate(187.662133 272.304533)" fill="#c1c1c1" stroke-width="0"/><rect width="31" height="31" rx="0" ry="0" transform="translate(152.216178 272.304533)" fill="#c1c1c1" stroke-width="0"/><rect width="31" height="31" rx="0" ry="0" transform="translate(116.770223 272.304533)" fill="#c1c1c1" stroke-width="0"/><rect width="31" height="31" rx="0" ry="0" transform="translate(81.324268 272.304533)" fill="#c1c1c1" stroke-width="0"/><rect width="31" height="31" rx="0" ry="0" transform="translate(45.878313 272.304533)" fill="#c1c1c1" stroke-width="0"/><rect width="31" height="31" rx="0" ry="0" transform="translate(116.770223 236.861034)" fill="#c1c1c1" stroke-width="0"/><rect width="31" height="31" rx="0" ry="0" transform="translate(258.554043 236.861034)" fill="#c1c1c1" stroke-width="0"/><rect width="31" height="31" rx="0" ry="0" transform="translate(223.108088 236.861034)" fill="#c1c1c1" stroke-width="0"/><rect width="31" height="31" rx="0" ry="0" transform="translate(187.662133 236.861034)" fill="#c1c1c1" stroke-width="0"/><rect width="31" height="31" rx="0" ry="0" transform="translate(152.216178 236.861034)" fill="#c1c1c1" stroke-width="0"/><rect width="31" height="31" rx="0" ry="0" transform="translate(116.770223 272.304533)" fill="#c1c1c1" stroke-width="0"/><rect width="31" height="31" rx="0" ry="0" transform="translate(116.770223 307.748032)" fill="#c1c1c1" stroke-width="0"/><rect width="31" height="31" rx="0" ry="0" transform="translate(116.770223 307.748032)" fill="#c1c1c1" stroke-width="0"/><rect width="31" height="31" rx="0" ry="0" transform="translate(116.770223 307.748032)" fill="#c1c1c1" stroke-width="0"/><rect width="31" height="31" rx="0" ry="0" transform="translate(258.554043 307.748032)" fill="#c1c1c1" stroke-width="0"/><rect width="31" height="31" rx="0" ry="0" transform="translate(223.108088 307.748032)" fill="#c1c1c1" stroke-width="0"/><rect width="31" height="31" rx="0" ry="0" transform="translate(187.662133 307.748032)" fill="#c1c1c1" stroke-width="0"/><rect width="31" height="31" rx="0" ry="0" transform="translate(152.216178 307.748032)" fill="#c1c1c1" stroke-width="0"/><rect width="31" height="31" rx="0" ry="0" transform="translate(116.770223 307.748032)" fill="#c1c1c1" stroke-width="0"/><rect width="31" height="31" rx="0" ry="0" transform="translate(81.324268 307.748032)" fill="#c1c1c1" stroke-width="0"/><rect width="31" height="31" rx="0" ry="0" transform="translate(45.878313 307.748032)" fill="#c1c1c1" stroke-width="0"/><rect width="31" height="31" rx="0" ry="0" transform="translate(81.324268 236.861034)" fill="#c1c1c1" stroke-width="0"/><rect width="31" height="31" rx="0" ry="0" transform="translate(45.878313 236.861034)" fill="#c1c1c1" stroke-width="0"/><rect width="31" height="31" rx="0" ry="0" transform="translate(81.324268 165.974036)" fill="#c1c1c1" stroke-width="0"/><rect width="31" height="31" rx="0" ry="0" transform="translate(45.878313 165.974036)" fill="#c1c1c1" stroke-width="0"/><rect width="31" height="31" rx="0" ry="0" transform="translate(81.324268 95.087038)" fill="#c1c1c1" stroke-width="0"/><rect width="31" height="31" rx="0" ry="0" transform="translate(45.878313 95.087038)" fill="#c1c1c1" stroke-width="0"/><rect width="31" height="31" rx="0" ry="0" transform="translate(10.432358 95.087038)" fill="#c1c1c1" stroke-width="0"/><rect width="31" height="31" rx="0" ry="0" transform="translate(10.432358 130.530537)" fill="#c1c1c1" stroke-width="0"/><rect width="31" height="31" rx="0" ry="0" transform="translate(10.432358 165.974036)" fill="#c1c1c1" stroke-width="0"/><rect width="31" height="31" rx="0" ry="0" transform="translate(10.432358 201.417535)" fill="#c1c1c1" stroke-width="0"/><rect width="31" height="31" rx="0" ry="0" transform="translate(10.432358 236.861034)" fill="#c1c1c1" stroke-width="0"/><rect width="31" height="31" rx="0" ry="0" transform="translate(10.432358 272.304533)" fill="#c1c1c1" stroke-width="0"/><rect width="31" height="31" rx="0" ry="0" transform="translate(10.432358 307.748032)" fill="#c1c1c1" stroke-width="0"/></svg>
